<svg width="183" height="34" viewBox="0 0 183 34" fill="none" xmlns="http://www.w3.org/2000/svg">
<path fill-rule="evenodd" clip-rule="evenodd" d="M9.95594 9.36389C8.82579 10.5108 7.58579 11.7692 6.21521 13.1398C-3.25659 22.6116 -0.319274 22.627 4.60288 22.6529C7.58193 22.6686 11.288 22.6881 13.4101 24.8102C19.0385 30.4386 31.9394 38.2065 31.9394 28.3442C31.9394 24.619 33.5639 22.4299 34.9721 20.5322C37.2921 17.406 39.0249 15.0709 31.9394 7.96207C21.5794 -2.43198 21.363 -2.21233 9.95594 9.36389ZM22.2862 22.509C25.8266 22.509 28.6967 19.6389 28.6967 16.0985C28.6967 12.5581 25.8266 9.68798 22.2862 9.68798C18.7458 9.68798 15.8757 12.5581 15.8757 16.0985C15.8757 19.6389 18.7458 22.509 22.2862 22.509Z" fill="url(#paint0_linear)"/>
<path d="M52.2197 25.3319H55.91V19.1444H58.6032L61.91 25.3319H65.9839L62.2765 18.5478C64.2623 17.6955 65.3617 15.9654 65.3617 13.5791C65.3617 10.1103 63.0691 7.87736 59.106 7.87736H52.2197V25.3319ZM55.91 16.1785V10.8944H58.3987C60.5293 10.8944 61.5606 11.8404 61.5606 13.5791C61.5606 15.3092 60.5293 16.1785 58.4157 16.1785H55.91ZM73.6565 25.5876C76.8951 25.5876 79.0769 24.0109 79.5883 21.5819L76.2303 21.3603C75.8639 22.3575 74.9264 22.8774 73.7161 22.8774C71.9008 22.8774 70.7502 21.6757 70.7502 19.724V19.7154H79.665V18.7183C79.665 14.2694 76.9718 12.0705 73.5116 12.0705C69.6593 12.0705 67.1622 14.8063 67.1622 18.8461C67.1622 22.9967 69.6252 25.5876 73.6565 25.5876ZM70.7502 17.4654C70.8269 15.974 71.9604 14.7808 73.5712 14.7808C75.1479 14.7808 76.2389 15.9058 76.2474 17.4654H70.7502ZM82.0343 12.241V25.92C82.0343 26.9086 81.6167 27.4029 80.4491 27.4029C80.2957 27.4029 80.1593 27.4029 79.9718 27.3859V30.224C80.236 30.2325 80.4491 30.241 80.7048 30.241C83.79 30.241 85.665 29.0137 85.665 25.9796V12.241H82.0343ZM83.8411 10.5535C84.9235 10.5535 85.8099 9.7268 85.8099 8.71259C85.8099 7.70691 84.9235 6.8802 83.8411 6.8802C82.7673 6.8802 81.8809 7.70691 81.8809 8.71259C81.8809 9.7268 82.7673 10.5535 83.8411 10.5535ZM96.9683 19.758C96.9768 21.5137 95.7751 22.4342 94.4711 22.4342C93.0989 22.4342 92.2126 21.4711 92.2041 19.9285V12.241H88.5734V20.5762C88.5819 23.6359 90.3717 25.5024 93.0052 25.5024C94.9739 25.5024 96.3887 24.4882 96.9768 22.9541H97.1131V25.3319H100.599V12.241H96.9683V19.758ZM115.708 12.241H111.864L109.154 21.6075H109.017L106.299 12.241H102.463L107.04 25.3319H111.131L115.708 12.241ZM123.086 25.5876C126.325 25.5876 128.507 24.0109 129.018 21.5819L125.66 21.3603C125.294 22.3575 124.356 22.8774 123.146 22.8774C121.33 22.8774 120.18 21.6757 120.18 19.724V19.7154H129.095V18.7183C129.095 14.2694 126.402 12.0705 122.941 12.0705C119.089 12.0705 116.592 14.8063 116.592 18.8461C116.592 22.9967 119.055 25.5876 123.086 25.5876ZM120.18 17.4654C120.257 15.974 121.39 14.7808 123.001 14.7808C124.578 14.7808 125.669 15.9058 125.677 17.4654H120.18ZM135.095 17.7637C135.103 16.0762 136.109 15.0876 137.575 15.0876C139.032 15.0876 139.91 16.0421 139.902 17.6444V25.3319H143.532V16.9967C143.532 13.9455 141.742 12.0705 139.015 12.0705C137.072 12.0705 135.666 13.0251 135.078 14.5507H134.924V12.241H131.464V25.3319H135.095V17.7637ZM150.127 25.5791C152.061 25.5791 153.314 24.7353 153.953 23.5166H154.056V25.3319H157.499V16.5024C157.499 13.383 154.857 12.0705 151.942 12.0705C148.806 12.0705 146.743 13.5705 146.24 15.9569L149.598 16.2296C149.845 15.3603 150.621 14.7211 151.925 14.7211C153.161 14.7211 153.868 15.3433 153.868 16.4171V16.4683C153.868 17.312 152.973 17.4228 150.698 17.6444C148.107 17.883 145.78 18.7524 145.78 21.6757C145.78 24.2666 147.629 25.5791 150.127 25.5791ZM151.166 23.0734C150.05 23.0734 149.249 22.5535 149.249 21.5563C149.249 20.5336 150.093 20.0308 151.371 19.8518C152.164 19.741 153.459 19.5535 153.894 19.2637V20.6529C153.894 22.0251 152.76 23.0734 151.166 23.0734ZM167.279 12.241H164.816V9.10464H161.185V12.241H159.395V14.9683H161.185V21.7865C161.168 24.3518 162.915 25.6217 165.549 25.5109C166.486 25.4768 167.151 25.2893 167.517 25.17L166.946 22.4683C166.767 22.5024 166.384 22.5876 166.043 22.5876C165.318 22.5876 164.816 22.3149 164.816 21.3092V14.9683H167.279V12.241ZM175.469 25.5876C178.708 25.5876 180.889 24.0109 181.401 21.5819L178.043 21.3603C177.676 22.3575 176.739 22.8774 175.529 22.8774C173.713 22.8774 172.563 21.6757 172.563 19.724V19.7154H181.477V18.7183C181.477 14.2694 178.784 12.0705 175.324 12.0705C171.472 12.0705 168.975 14.8063 168.975 18.8461C168.975 22.9967 171.438 25.5876 175.469 25.5876ZM172.563 17.4654C172.639 15.974 173.773 14.7808 175.384 14.7808C176.96 14.7808 178.051 15.9058 178.06 17.4654H172.563Z" fill="#1565D8"/>
<defs>
<linearGradient id="paint0_linear" x1="-3.39121e-07" y1="1.30583" x2="7.99806" y2="35.5231" gradientUnits="userSpaceOnUse">
<stop stop-color="#3A7FE2"/>
<stop offset="1" stop-color="#0B4AA4"/>
</linearGradient>
</defs>
</svg>
